<svg width="60" height="17" viewBox="0 0 60 17" fill="none" xmlns="http://www.w3.org/2000/svg">
<mask id="mask0_78_1021" style="mask-type:luminance" maskUnits="userSpaceOnUse" x="0" y="0" width="60" height="17">
<path d="M60 0H0V17H60V0Z" fill="white"/>
</mask>
<g mask="url(#mask0_78_1021)">
<path d="M15.6188 0H18.3491V17H15.6188V0ZM27.9048 11.577C27.9048 14.1787 25.7091 14.3861 25.0558 14.3861C23.4239 14.3861 23.127 12.8642 23.127 11.9462V5.44H20.3968V11.9326C20.3968 13.5442 20.9046 14.8743 21.7947 15.761C22.5809 16.5451 23.7591 16.9735 25.0354 16.9735C25.9404 16.9735 27.2223 16.6926 27.9048 16.0718V17H30.6351V5.44H27.9048V11.577ZM36.0956 1.36H33.3653V5.44H31.3176V8.16H33.3653V17H36.0956V8.16H38.1432V5.44H36.0956V1.36ZM46.7415 13.5435C46.147 14.076 45.362 14.3711 44.5006 14.3711C42.6017 14.3711 41.2073 12.9819 41.2073 11.0745C41.2073 9.16709 42.5576 7.83633 44.5006 7.83633C45.3471 7.83633 46.147 8.11715 46.7566 8.6496L47.1708 9.00455L49.0116 7.17127L48.5511 6.75715C47.4677 5.78273 46.0296 5.236 44.5001 5.236C41.0873 5.236 38.6088 7.68945 38.6088 11.0602C38.6088 14.4167 41.1466 16.9578 44.5001 16.9578C46.0582 16.9578 47.5114 16.4111 48.5811 15.421L49.026 15.0069L47.1564 13.175L46.7415 13.5435ZM58.7566 6.44776C57.9704 5.6644 57.0488 5.236 55.7724 5.236C54.8674 5.236 53.8421 5.51685 53.1596 6.137V0H50.4293V17H53.1596V10.6318C53.1596 8.03012 55.0148 7.8234 55.668 7.8234C57.3 7.8234 57.2549 9.34591 57.2549 10.2625V17H59.9852V10.2768C59.9852 8.66524 59.6475 7.33515 58.7566 6.44776Z" fill="#202124"/>
<path d="M44.4106 9.13672C44.9341 9.13672 45.4361 9.3439 45.8065 9.71271C46.1765 10.0815 46.3846 10.5817 46.3846 11.1033C46.3846 11.6248 46.1765 12.125 45.8065 12.4938C45.4361 12.8626 44.9341 13.0698 44.4106 13.0698C43.8872 13.0698 43.3851 12.8626 43.0148 12.4938C42.6447 12.125 42.4366 11.6248 42.4366 11.1033C42.4366 10.5817 42.6447 10.0815 43.0148 9.71271C43.3851 9.3439 43.8872 9.13672 44.4106 9.13672Z" fill="#FF3D2E"/>
<path d="M11.7965 12.7308C10.7583 13.795 9.34815 14.3717 7.86428 14.3717C4.82279 14.3717 2.61128 11.9917 2.61128 8.72495C2.61128 5.44328 4.82279 3.06328 7.86428 3.06328C9.33383 3.06328 10.7283 3.63925 11.7822 4.68916L12.1972 5.10328L14.0223 3.28495L13.6217 2.87083C12.1084 1.3184 10.0607 0.476562 7.86428 0.476562C3.38327 0.476562 0.0148315 4.02413 0.0148315 8.73925C0.0148315 13.4401 3.39829 16.9734 7.86428 16.9734C10.0758 16.9734 12.1234 16.1166 13.6367 14.5641L14.0373 14.15L12.2272 12.3024L11.7965 12.7308Z" fill="#202124"/>
</g>
</svg>
