<svg width="2500" height="711" viewBox="0 0 2500 711" fill="none" xmlns="http://www.w3.org/2000/svg">
<g clip-path="url(#clip0_158_3)">
<path d="M650.783 0H764.543V711H650.783V0ZM1162.7 484.191C1162.7 593.002 1071.21 601.677 1043.99 601.677C975.995 601.677 963.623 538.028 963.623 499.634V227.52H849.863V499.065C849.863 566.468 871.023 622.097 908.109 659.182C940.871 691.974 989.959 709.891 1043.14 709.891C1080.85 709.891 1134.26 698.145 1162.7 672.179V711H1276.46V227.52H1162.7V484.191ZM1503.98 56.88H1390.22V227.52H1304.9V341.28H1390.22V711H1503.98V341.28H1589.3V227.52H1503.98V56.88ZM1947.56 566.439C1922.79 588.708 1890.08 601.051 1854.19 601.051C1775.07 601.051 1716.97 542.948 1716.97 463.174C1716.97 383.4 1773.23 327.743 1854.19 327.743C1889.46 327.743 1922.79 339.488 1948.19 361.757L1965.45 376.602L2042.15 299.928L2022.96 282.608C1977.82 241.854 1917.9 218.988 1854.17 218.988C1711.97 218.988 1608.7 321.6 1608.7 462.577C1608.7 602.956 1714.44 709.237 1854.17 709.237C1919.09 709.237 1979.64 686.371 2024.21 644.962L2042.75 627.642L1964.85 551.025L1947.56 566.439ZM2448.19 269.668C2415.43 236.905 2377.03 218.988 2323.85 218.988C2286.14 218.988 2243.42 230.734 2214.98 256.671V0H2101.22V711H2214.98V444.659C2214.98 335.848 2292.28 327.202 2319.5 327.202C2387.5 327.202 2385.62 390.879 2385.62 429.216V711H2499.38V429.814C2499.38 362.411 2485.31 306.782 2448.19 269.668Z" fill="#202124"/>
<path d="M1850.44 382.177C1872.25 382.177 1893.17 390.842 1908.6 406.267C1924.02 421.691 1932.69 442.612 1932.69 464.425C1932.69 486.239 1924.02 507.159 1908.6 522.584C1893.17 538.008 1872.25 546.674 1850.44 546.674C1828.63 546.674 1807.71 538.008 1792.28 522.584C1776.86 507.159 1768.19 486.239 1768.19 464.425C1768.19 442.612 1776.86 421.691 1792.28 406.267C1807.71 390.842 1828.63 382.177 1850.44 382.177Z" fill="#FF3D2E"/>
<path d="M491.519 532.425C448.262 576.934 389.505 601.051 327.677 601.051C200.948 601.051 108.802 501.511 108.802 364.885C108.802 227.634 200.948 128.094 327.677 128.094C388.908 128.094 447.011 152.183 490.922 196.094L508.214 213.414L584.262 137.365L567.568 120.045C504.516 55.1169 419.196 19.9082 327.677 19.9082C140.968 19.9082 0.616577 168.28 0.616577 365.483C0.616577 562.088 141.594 709.863 327.677 709.863C419.822 709.863 505.142 674.028 568.194 609.1L584.888 591.78L509.465 514.508L491.519 532.425Z" fill="#202124"/>
</g>
<defs>
<clipPath id="clip0_158_3">
<rect width="2500" height="711" fill="white"/>
</clipPath>
</defs>
</svg>
