<svg id="Layer_1" data-name="Layer 1" xmlns="http://www.w3.org/2000/svg" viewBox="0 0 64 64"><defs><style>.cls-1{fill:#dfe8f4;}.cls-2{fill:#0795ff;}.cls-3{fill:#fff;}.cls-4{fill:#156cdd;}.cls-5{fill:#ccd8e5;}</style></defs><title>medical, medicine, healthcare, health, heart rate, website, browser</title><rect class="cls-1" x="9.73" y="8" width="44.53" height="47.94" rx="6.25"/><path class="cls-2" d="M9.73,42.41v7.28A6.25,6.25,0,0,0,16,55.94H48a6.25,6.25,0,0,0,6.25-6.25V42.41Z"/><path class="cls-3" d="M19.78,49.18a1.65,1.65,0,1,1-1.65-1.65A1.64,1.64,0,0,1,19.78,49.18Z"/><path class="cls-4" d="M25.28,49.18a1.65,1.65,0,1,1-1.65-1.65A1.64,1.64,0,0,1,25.28,49.18Z"/><path class="cls-4" d="M30.78,49.18a1.65,1.65,0,1,1-1.65-1.65A1.64,1.64,0,0,1,30.78,49.18Z"/><path class="cls-3" d="M45.87,50.82h-9a1.64,1.64,0,0,1-1.65-1.64h0a1.65,1.65,0,0,1,1.65-1.65h9a1.65,1.65,0,0,1,1.65,1.65h0A1.64,1.64,0,0,1,45.87,50.82Z"/><rect class="cls-5" x="9.73" y="39.67" width="44.53" height="2.75"/><path class="cls-3" d="M30.36,34.64A1.5,1.5,0,0,1,29,33.78l-2.36-5a1.49,1.49,0,0,1-1.28.72H20.64a1.5,1.5,0,0,1,0-3h3.48l.51-2.67a1.5,1.5,0,0,1,2.83-.36l2.74,5.83,3.64-9.79a1.5,1.5,0,0,1,1.41-1h0a1.48,1.48,0,0,1,1.4,1l2.47,7h4.23a1.5,1.5,0,0,1,0,3H38.07a1.5,1.5,0,0,1-1.41-1l-1.45-4.08-3.45,9.27a1.5,1.5,0,0,1-1.34,1Z"/></svg>