<svg width="286" height="433" viewBox="0 0 286 433" fill="none" xmlns="http://www.w3.org/2000/svg">
<path d="M26 80C40.3594 80 52 68.3594 52 54C52 39.6406 40.3594 28 26 28C11.6406 28 0 39.6406 0 54C0 68.3594 11.6406 80 26 80Z" fill="#B4C8FB"/>
<path d="M208 60C224.569 60 238 46.5685 238 30C238 13.4315 224.569 0 208 0C191.431 0 178 13.4315 178 30C178 46.5685 191.431 60 208 60Z" fill="#F2CF61"/>
<path fill-rule="evenodd" clip-rule="evenodd" d="M29.8568 52.6672V51.5197C29.8559 51.4813 29.8617 51.443 29.8738 51.4073C29.8859 51.3716 29.9041 51.3392 29.9272 51.312C29.9504 51.2849 29.978 51.2635 30.0084 51.2493C30.0388 51.235 30.0713 51.2282 30.104 51.2293H34.4783C34.6185 51.2293 34.7311 51.348 34.7311 51.5197V52.502C34.7294 52.6667 34.6107 52.8823 34.4017 53.2232L32.1355 57.0242C32.9783 57 33.8668 57.1475 34.6305 57.653C34.8025 57.7672 34.8455 57.9343 34.8627 58.0995V59.3242C34.8627 59.4909 34.7053 59.6869 34.5402 59.5859C33.1942 58.7576 31.4066 58.6667 29.9187 59.5944C29.7669 59.6914 29.6078 59.4975 29.6078 59.3308V58.1677C29.6078 57.9808 29.6095 57.6626 29.7686 57.3783L32.3948 52.9551H30.1135C29.9733 52.9551 29.8606 52.8389 29.8606 52.6672M13.899 59.8278H12.5685C12.4412 59.8167 12.3405 59.7045 12.3306 59.5616V51.5394C12.3306 51.3788 12.445 51.2515 12.5869 51.2515H13.828C13.957 51.2581 14.0602 51.3747 14.0697 51.5192V52.5677H14.0942C14.418 51.554 15.0265 51.0813 15.8461 51.0813C16.6791 51.0813 17.1994 51.554 17.574 52.5677C17.8965 51.554 18.6275 51.0813 19.4123 51.0813C19.9701 51.0813 20.5803 51.3515 20.9527 51.9586C21.3741 52.6333 21.2881 53.6141 21.2881 54.4737L21.2851 59.5374C21.2851 59.698 21.1707 59.8278 21.0288 59.8278H19.6957C19.5667 59.8167 19.4562 59.6914 19.4562 59.5374V55.2798C19.4562 54.9414 19.482 54.097 19.4188 53.7763C19.3199 53.2379 19.0219 53.0859 18.6361 53.0859C18.3136 53.0859 17.9773 53.3384 17.8406 53.7434C17.7038 54.1485 17.7172 54.8253 17.7172 55.2803V59.5328C17.7172 59.6934 17.6028 59.8232 17.4609 59.8232H16.1278C15.9932 59.8121 15.8883 59.6869 15.8883 59.5328L15.8865 55.2803C15.8865 54.3854 16.0121 53.0682 15.0665 53.0682C14.1101 53.0682 14.1475 54.352 14.1475 55.2803V59.5328C14.1475 59.6934 14.0331 59.8232 13.8912 59.8232M38.4973 51.0879C40.472 51.0879 41.541 53.0798 41.541 55.6121C41.541 58.0591 40.3597 60 38.4973 60C36.5622 60 35.5022 58.0081 35.5022 55.5263C35.5022 53.0288 36.5712 51.0818 38.4973 51.0818M38.5085 52.7197C37.528 52.7197 37.4657 54.2894 37.4657 55.2677C37.4657 56.246 37.4528 58.3409 38.4969 58.3409C39.5281 58.3409 39.5771 56.6525 39.5771 55.6237C39.5771 54.947 39.5526 54.1374 39.3793 53.4955C39.2296 52.9369 38.932 52.7192 38.5089 52.7192M44.1022 59.8278H42.7769C42.6479 59.8167 42.5374 59.6914 42.5374 59.5374L42.5357 51.5131C42.5468 51.3657 42.6574 51.2515 42.792 51.2515H44.0261C44.1422 51.2581 44.2377 51.3505 44.2639 51.4758V52.703H44.2884C44.6608 51.6061 45.1829 51.0828 46.1023 51.0828C46.7043 51.0828 47.2814 51.3354 47.656 52.0283C48 52.6697 48 53.7495 48 54.5258V59.5763C47.9849 59.7177 47.8744 59.8288 47.7437 59.8288H46.4115C46.2898 59.8177 46.1887 59.7126 46.1758 59.5763V55.2192C46.1758 54.3419 46.2618 53.0576 45.3429 53.0576C45.0191 53.0576 44.7215 53.3126 44.5688 53.699C44.3818 54.1889 44.3573 54.6773 44.3573 55.2182V59.5384C44.3555 59.699 44.2394 59.8288 44.0971 59.8288M26.3693 55.9904C26.3693 56.5995 26.3822 57.1015 26.1199 57.648C25.9083 58.0874 25.5716 58.3581 25.1987 58.3581C24.6879 58.3581 24.3881 57.901 24.3881 57.2258C24.3881 55.8934 25.4047 55.6515 26.3684 55.6515V55.9899M27.7101 59.8C27.6219 59.8924 27.4951 59.899 27.3962 59.8374C26.9545 59.4066 26.8741 59.2061 26.6324 58.7955C25.9023 59.6702 25.3841 59.9318 24.4385 59.9318C23.3174 59.9318 22.4466 59.1207 22.4466 57.496C22.4466 56.2273 23.0306 55.3636 23.8657 54.9414C24.5881 54.5677 25.5969 54.502 26.3684 54.3985V54.1965C26.3684 53.8247 26.3929 53.3854 26.205 53.0641C26.0442 52.7763 25.7333 52.6576 25.458 52.6576C24.9506 52.6576 24.4991 52.9631 24.389 53.597C24.3666 53.7384 24.2785 53.8763 24.1568 53.8828L22.8667 53.7202C22.7583 53.6914 22.6366 53.5889 22.6689 53.3919C22.9648 51.5535 24.3804 51 25.6447 51C26.2923 51 27.1386 51.202 27.6495 51.7778C28.2971 52.4879 28.2352 53.4354 28.2352 54.4667V56.9025C28.2352 57.6348 28.4932 57.9556 28.737 58.352C28.8213 58.4934 28.8402 58.6621 28.7314 58.7677L27.714 59.8101L27.7122 59.8051M8.92184 55.9955C8.92184 56.6045 8.93474 57.1066 8.67242 57.653C8.46085 58.0924 8.12629 58.3631 7.75131 58.3631C7.24043 58.3631 6.94286 57.9061 6.94286 57.2308C6.94286 55.8985 7.95944 55.6566 8.92098 55.6566V55.995M10.2627 59.8051C10.1745 59.8975 10.0476 59.904 9.94874 59.8424C9.5071 59.4116 9.43271 59.2111 9.18501 58.8005C8.45483 59.6753 7.93794 59.9369 6.99102 59.9369C5.87209 59.9374 5 59.1263 5 57.502C5 56.2333 5.5857 55.3697 6.41909 54.9475C7.14153 54.5737 8.15037 54.5081 8.92184 54.4045V54.2025C8.92184 53.8308 8.94635 53.3914 8.76101 53.0702C8.5976 52.7823 8.28798 52.6636 8.01405 52.6636C7.50662 52.6636 7.0538 52.9692 6.93899 53.603C6.91662 53.7444 6.82847 53.8823 6.70892 53.8889L5.41713 53.7263C5.30876 53.6975 5.18921 53.595 5.21931 53.398C5.51689 51.5596 6.93082 51.0061 8.19509 51.0061C8.84271 51.0061 9.689 51.2081 10.1999 51.7838C10.8475 52.4939 10.7856 53.4414 10.7856 54.4727V56.9086C10.7856 57.6409 11.0436 57.9616 11.2874 58.3581C11.3734 58.4995 11.3923 58.6682 11.2831 58.7737L10.2682 59.8101L10.2639 59.8051" fill="#221F1F"/>
<path fill-rule="evenodd" clip-rule="evenodd" d="M40.4444 66.4051C36.4005 70.7043 30.5202 73 25.464 73C18.3748 73 11.9918 69.2257 7.16356 62.946C6.78428 62.4521 7.12382 61.7796 7.5791 62.163C12.7901 66.5295 19.233 69.1545 25.8879 69.1545C30.3766 69.1545 35.3143 67.8174 39.8545 65.0429C40.5406 64.6233 41.1137 65.6894 40.443 66.4061M42.1288 63.6316C41.6129 62.678 38.7125 63.1819 37.4003 63.4047C37.0029 63.475 36.9423 62.9761 37.2999 62.6178C39.6147 60.2709 43.4145 60.9485 43.8586 61.7344C44.3027 62.5204 43.7436 68.0081 41.5676 70.626C41.2329 71.0275 40.915 70.8137 41.0635 70.2807C41.5515 68.5241 42.6476 64.5882 42.1288 63.6316Z" fill="#FF9900"/>
<path d="M88.7663 217C88.8353 217 88.9043 217 88.9772 217C89.1465 219.442 88.3484 221.267 87.3786 222.588C86.4269 223.901 85.1238 225.174 83.0161 224.98C82.8755 222.573 83.6748 220.884 84.6434 219.565C85.5417 218.337 87.1885 217.243 88.7663 217Z" fill="black"/>
<path d="M97 241.238C97 241.261 97 241.281 97 241.303C96.2893 243.296 95.2756 245.005 94.0385 246.59C92.9092 248.03 91.5252 249.967 89.0541 249.967C86.9189 249.967 85.5006 248.695 83.3122 248.66C80.9974 248.626 79.7243 249.724 77.6078 250C77.3657 250 77.1236 250 76.8862 250C75.332 249.792 74.0777 248.652 73.164 247.625C70.4695 244.59 68.3874 240.669 68 235.652C68 235.16 68 234.67 68 234.178C68.164 230.588 70.0478 227.668 72.5517 226.254C73.8731 225.501 75.6897 224.86 77.7125 225.147C78.5794 225.271 79.465 225.546 80.2414 225.818C80.9771 226.08 81.8971 226.544 82.7687 226.52C83.3591 226.504 83.9464 226.219 84.5415 226.018C86.2847 225.435 87.9935 224.766 90.2459 225.08C92.9529 225.459 94.8741 226.573 96.0613 228.292C93.7714 229.642 91.961 231.675 92.2703 235.149C92.5452 238.304 94.5258 240.15 97 241.238Z" fill="black"/>
<path d="M224.931 40.4401C224.907 40.3724 224.88 40.3058 224.855 40.2385C224.831 40.1723 224.806 40.107 224.781 40.0412C224.755 39.9699 224.728 39.901 224.702 39.8309C224.677 39.7628 224.65 39.6958 224.625 39.6281C224.6 39.56 224.573 39.4926 224.548 39.4253C224.524 39.3571 224.497 39.2898 224.471 39.2221C224.447 39.1539 224.42 39.087 224.395 39.0193C224.37 38.9511 224.343 38.8842 224.318 38.816C224.294 38.7479 224.266 38.6814 224.241 38.6132C224.217 38.5451 224.19 38.4782 224.165 38.4104C224.14 38.3427 224.114 38.2761 224.089 38.2088C224.064 38.1395 224.037 38.0721 224.011 38.004C223.987 37.9359 223.96 37.8689 223.934 37.8012C223.91 37.7331 223.883 37.6661 223.858 37.5984C223.833 37.5303 223.806 37.4629 223.781 37.3956C223.756 37.3274 223.73 37.2601 223.704 37.1924C223.681 37.127 223.655 37.062 223.63 36.9971C223.606 36.9258 223.577 36.8569 223.551 36.7867C223.527 36.7186 223.5 36.6513 223.475 36.5839C223.45 36.5158 223.424 36.4493 223.398 36.3819C223.374 36.313 223.347 36.2456 223.321 36.1775C223.297 36.1094 223.27 36.042 223.245 35.9747C223.22 35.9066 223.193 35.8392 223.168 35.7715C223.143 35.7034 223.116 35.6364 223.091 35.5687C223.067 35.5006 223.04 35.4336 223.014 35.3655C222.99 35.2973 222.963 35.2308 222.938 35.1627C222.913 35.0945 222.886 35.0276 222.861 34.9599C222.837 34.8917 222.809 34.8248 222.784 34.757C222.76 34.6889 222.733 34.6224 222.708 34.555C222.683 34.4861 222.656 34.4188 222.631 34.3506C222.606 34.2825 222.579 34.2156 222.554 34.1478C222.53 34.0797 222.503 34.0123 222.477 33.945C222.454 33.8793 222.428 33.8143 222.404 33.7493C222.378 33.678 222.351 33.6091 222.324 33.539C222.3 33.4709 222.273 33.4039 222.248 33.3362C222.223 33.268 222.196 33.2007 222.171 33.1334C222.147 33.0652 222.12 32.9979 222.094 32.9302C222.07 32.862 222.043 32.7951 222.017 32.7273C221.993 32.6596 221.967 32.5931 221.941 32.5257C221.917 32.4568 221.889 32.3895 221.864 32.3209C221.84 32.2528 221.813 32.1859 221.787 32.1181C221.763 32.05 221.736 31.983 221.71 31.9149C221.686 31.8468 221.659 31.7802 221.634 31.7121C221.61 31.644 221.583 31.577 221.557 31.5093C221.533 31.4412 221.506 31.3742 221.48 31.3065C221.456 31.2383 221.429 31.171 221.404 31.1037C221.379 31.0355 221.352 30.9682 221.327 30.9005C221.304 30.8351 221.278 30.7709 221.253 30.7068C221.228 30.6351 221.2 30.5657 221.174 30.4948C221.15 30.4267 221.123 30.3594 221.097 30.292C221.073 30.2235 221.046 30.1566 221.02 30.0888C220.996 30.0207 220.969 29.9537 220.944 29.886C220.919 29.8175 220.892 29.7509 220.867 29.6828C220.843 29.6147 220.816 29.5481 220.79 29.48C220.766 29.4119 220.739 29.3449 220.713 29.2772C220.689 29.209 220.663 29.1421 220.637 29.0744C220.613 29.0062 220.586 28.9389 220.56 28.8716C220.536 28.8034 220.509 28.7369 220.484 28.6695C220.46 28.6006 220.432 28.5333 220.407 28.4651C220.382 28.397 220.356 28.3297 220.33 28.2623C220.306 28.1942 220.279 28.1269 220.253 28.0591C220.229 27.991 220.202 27.924 220.177 27.8563C220.153 27.7906 220.127 27.726 220.103 27.6606C220.077 27.5901 220.05 27.5204 220.024 27.4503C219.999 27.3822 219.972 27.3152 219.947 27.2475C219.922 27.1793 219.895 27.1124 219.87 27.0443C219.846 26.9769 219.819 26.9104 219.794 26.843C219.77 26.7741 219.742 26.7064 219.717 26.6382C219.692 26.5701 219.665 26.5032 219.64 26.4354C219.616 26.3669 219.589 26.3004 219.563 26.2322C219.539 26.1641 219.512 26.0976 219.487 26.0294C219.462 25.9613 219.435 25.8943 219.41 25.8266C219.385 25.7585 219.359 25.6915 219.333 25.6238C219.309 25.5557 219.282 25.4883 219.256 25.421C219.232 25.3525 219.205 25.2855 219.18 25.2178C219.155 25.1496 219.128 25.0827 219.103 25.015C219.078 24.9472 219.052 24.8807 219.027 24.8133C219.003 24.7468 218.977 24.6818 218.952 24.6161C218.928 24.5448 218.899 24.4758 218.873 24.4057C218.849 24.3376 218.822 24.2703 218.797 24.2029C218.772 24.1348 218.745 24.0675 218.72 24.0001C218.696 23.9316 218.669 23.8646 218.643 23.7969C218.619 23.7288 218.592 23.6618 218.567 23.5941C218.542 23.5256 218.515 23.459 218.49 23.3909C217.815 21.522 216.762 19.8714 215.787 18.5832C215.782 18.5686 215.774 18.5547 215.768 18.5404C215.743 18.4727 215.719 18.4042 215.691 18.3376C215.667 18.2699 215.642 18.201 215.614 18.1348C215.59 18.0671 215.565 17.9986 215.538 17.932C215.513 17.8643 215.489 17.7954 215.461 17.7292C215.436 17.6615 215.412 17.5933 215.384 17.5272C215.36 17.4587 215.336 17.3901 215.307 17.3232C215.283 17.2562 215.26 17.1889 215.232 17.1235C215.207 17.0542 215.183 16.9849 215.155 16.9172C215.13 16.8494 215.105 16.7805 215.078 16.7144C215.053 16.6466 215.029 16.5781 215.001 16.5115C214.976 16.4438 214.952 16.3749 214.925 16.3087C214.9 16.241 214.875 16.1725 214.848 16.1059C214.823 16.0382 214.799 15.9693 214.771 15.9031C214.746 15.8354 214.722 15.7668 214.694 15.7003C214.67 15.6326 214.646 15.5644 214.618 15.4983C214.593 15.4301 214.568 15.3612 214.541 15.2943C214.516 15.2265 214.492 15.158 214.464 15.0915C214.44 15.0237 214.415 14.9548 214.387 14.8887C214.363 14.8209 214.339 14.7524 214.311 14.6858C214.286 14.6181 214.262 14.5492 214.234 14.483C214.21 14.4153 214.185 14.3468 214.157 14.2802C214.133 14.2133 214.109 14.1459 214.082 14.0806C214.057 14.0113 214.032 13.9419 214.004 13.8742C213.979 13.8065 213.955 13.7375 213.928 13.6714C213.903 13.6037 213.879 13.5351 213.851 13.4686C213.826 13.4008 213.802 13.3327 213.774 13.2666C213.749 13.1984 213.725 13.1295 213.697 13.0626C213.672 12.9948 213.648 12.9263 213.621 12.8597C213.596 12.792 213.572 12.7231 213.544 12.6569C213.519 12.5892 213.495 12.5207 213.468 12.4541C213.443 12.3864 213.418 12.3175 213.391 12.2513C213.366 12.1836 213.342 12.115 213.314 12.0485C213.289 11.9808 213.265 11.9118 213.237 11.8457C213.213 11.778 213.188 11.7094 213.161 11.6429C213.136 11.5751 213.111 11.5062 213.084 11.4401C213.059 11.3723 213.035 11.3042 213.007 11.238C212.983 11.1707 212.959 11.103 212.932 11.0376C212.907 10.9687 212.882 10.899 212.854 10.8312C212.829 10.7635 212.805 10.695 212.777 10.6284C212.753 10.5607 212.728 10.4918 212.7 10.4256C212.676 10.3579 212.652 10.2893 212.624 10.2228C212.599 10.1551 212.575 10.0861 212.547 10.02C212.522 9.95225 212.498 9.88373 212.47 9.81718C211.868 8.1729 210.329 7 208.519 7C206.186 7 204.477 8.95602 204.294 11.3458C204.247 11.9606 204.686 15.9209 204.798 17.8076C202.686 19.9205 199.075 25.177 199.27 30.1134L199.333 30.1934C197.722 30.6576 195.422 33.0736 196.133 34.8363C196.148 34.8727 196.166 34.9072 196.181 34.9432C196.192 34.9749 196.197 35.0082 196.21 35.0395C196.224 35.0763 196.243 35.1104 196.258 35.1468C196.269 35.1785 196.274 35.2118 196.286 35.2427C196.301 35.2795 196.319 35.314 196.335 35.35C196.345 35.3817 196.35 35.415 196.363 35.4463C196.378 35.4827 196.396 35.5172 196.412 35.5532C196.422 35.5849 196.427 35.6182 196.44 35.6495C196.455 35.6863 196.473 35.7204 196.488 35.7568C196.499 35.7885 196.504 35.8218 196.516 35.8527C196.531 35.8891 196.549 35.924 196.565 35.9601C196.575 35.9917 196.581 36.025 196.593 36.0563C196.607 36.092 196.625 36.1256 196.641 36.1609C196.651 36.1934 196.657 36.227 196.67 36.2595C196.684 36.2956 196.702 36.3304 196.718 36.3661C196.729 36.3985 196.734 36.4318 196.746 36.4627C196.761 36.4992 196.779 36.534 196.795 36.5701C196.806 36.6018 196.81 36.635 196.823 36.6663C196.837 36.7028 196.856 36.7372 196.872 36.7733C196.882 36.805 196.887 36.8382 196.9 36.8695C196.914 36.906 196.932 36.9404 196.948 36.9769C196.959 37.0086 196.964 37.0418 196.976 37.0727C196.991 37.1092 197.009 37.144 197.025 37.1801C197.036 37.2118 197.04 37.2451 197.053 37.2763C197.068 37.3128 197.086 37.3472 197.102 37.3833C197.112 37.415 197.117 37.4483 197.13 37.4796C197.144 37.516 197.163 37.5505 197.178 37.5869C197.189 37.6186 197.194 37.6519 197.207 37.6828C197.221 37.7192 197.239 37.7541 197.255 37.7901C197.266 37.8214 197.27 37.8547 197.283 37.8864C197.298 37.9228 197.316 37.9573 197.332 37.9933C197.343 38.025 197.347 38.0583 197.36 38.0896C197.375 38.126 197.393 38.1605 197.409 38.1969C197.419 38.2286 197.424 38.2619 197.437 38.2928C197.451 38.3292 197.469 38.3633 197.485 38.3997C197.496 38.4314 197.501 38.4647 197.514 38.4964C197.528 38.5328 197.546 38.5673 197.562 38.6033C197.572 38.635 197.577 38.6683 197.59 38.6996C197.605 38.736 197.623 38.7705 197.639 38.8069C197.649 38.8382 197.654 38.8715 197.667 38.9028C197.681 38.9392 197.7 38.9741 197.716 39.0097C197.726 39.0414 197.731 39.0747 197.743 39.1064C197.758 39.142 197.776 39.1753 197.791 39.211C197.802 39.2435 197.807 39.2771 197.82 39.3096C197.835 39.346 197.853 39.3805 197.868 39.4166C197.879 39.4482 197.884 39.4815 197.896 39.5128C197.911 39.5493 197.93 39.5841 197.945 39.6198C197.956 39.6515 197.961 39.6847 197.973 39.7164C197.988 39.7529 198.006 39.7869 198.022 39.8234C198.032 39.8551 198.038 39.8883 198.05 39.9196C198.065 39.9561 198.083 39.9905 198.098 40.0266C198.109 40.0583 198.114 40.0915 198.127 40.1228C198.141 40.1593 198.16 40.1941 198.175 40.2298C198.186 40.2615 198.191 40.2947 198.203 40.3264C198.218 40.3629 198.236 40.3969 198.252 40.4334C198.263 40.4651 198.267 40.4984 198.28 40.5292C198.294 40.5657 198.313 40.6002 198.329 40.6362C198.339 40.6683 198.344 40.7016 198.357 40.7329C198.372 40.7693 198.39 40.8038 198.405 40.8398C198.416 40.8715 198.421 40.9048 198.433 40.9365C198.448 40.9729 198.466 41.007 198.482 41.0434C198.493 41.0751 198.498 41.1084 198.51 41.1393C198.525 41.1761 198.543 41.2106 198.559 41.2466C198.57 41.2783 198.574 41.3116 198.587 41.3429C198.602 41.3793 198.62 41.4138 198.635 41.4498C198.646 41.4815 198.651 41.5148 198.664 41.5461C198.678 41.5829 198.697 41.617 198.712 41.6534C198.723 41.6851 198.728 41.7184 198.74 41.7493C198.755 41.7861 198.773 41.8206 198.789 41.8566C198.8 41.8883 198.805 41.9216 198.817 41.9529C198.832 41.9893 198.85 42.0238 198.866 42.0598C198.876 42.0915 198.881 42.1248 198.894 42.1561C198.908 42.1921 198.926 42.2254 198.941 42.2611C198.952 42.2936 198.957 42.3268 198.97 42.3593C198.985 42.3957 199.003 42.4306 199.019 42.4667C199.029 42.4983 199.034 42.5316 199.047 42.5629C199.061 42.599 199.08 42.6338 199.095 42.6695C199.106 42.7015 199.111 42.7348 199.123 42.7661C199.138 42.803 199.157 42.837 199.172 42.8735C199.183 42.9052 199.188 42.9384 199.2 42.9693C199.215 43.0058 199.233 43.0406 199.249 43.0767C199.259 43.1084 199.264 43.1416 199.277 43.1729C199.292 43.2094 199.31 43.2438 199.325 43.2799C199.336 43.3116 199.341 43.3448 199.353 43.3761C199.369 43.4126 199.387 43.447 199.402 43.4835C199.413 43.5152 199.418 43.5484 199.43 43.5793C199.445 43.6158 199.464 43.6506 199.479 43.6867C199.489 43.7184 199.495 43.7517 199.507 43.7829C199.522 43.8194 199.54 43.8539 199.555 43.8899C199.566 43.9216 199.571 43.9549 199.584 43.9862C199.599 44.0226 199.617 44.0571 199.632 44.0935C199.643 44.1252 199.648 44.1585 199.66 44.1894C199.676 44.2258 199.694 44.2607 199.709 44.2967C199.72 44.328 199.725 44.3613 199.737 44.393C199.752 44.4294 199.77 44.4639 199.786 44.4999C199.796 44.5316 199.802 44.5649 199.814 44.5962C199.828 44.6322 199.846 44.6667 199.862 44.7027C199.873 44.7352 199.878 44.7685 199.891 44.7994C199.906 44.8358 199.924 44.8707 199.939 44.9063C199.95 44.938 199.955 44.9713 199.967 45.003C199.982 45.0394 200.001 45.0739 200.016 45.1099C200.027 45.1416 200.032 45.1749 200.044 45.2062C200.058 45.2418 200.077 45.2755 200.092 45.3108C200.103 45.3432 200.108 45.3769 200.12 45.4094C200.135 45.4458 200.153 45.4807 200.169 45.5164C200.18 45.548 200.184 45.5813 200.197 45.613C200.212 45.6494 200.23 45.6839 200.246 45.72C200.256 45.7516 200.261 45.7849 200.274 45.8162C200.289 45.8527 200.307 45.8871 200.323 45.9232C200.333 45.9549 200.338 45.9881 200.351 46.0194C200.365 46.0559 200.383 46.0907 200.399 46.1264C200.41 46.1581 200.415 46.1913 200.427 46.223C200.442 46.2595 200.46 46.2935 200.476 46.33C200.487 46.3617 200.491 46.3949 200.504 46.4262C200.519 46.4627 200.537 46.4971 200.553 46.5332C200.563 46.5649 200.568 46.5981 200.581 46.6294C200.584 46.6385 200.589 46.6473 200.593 46.6564C203.001 47.5148 205.582 48 208.271 48C214.799 48 220.711 45.1808 225 40.6208C224.977 40.5601 224.954 40.4999 224.931 40.4401Z" fill="#E6C45C"/>
<path d="M204.46 37.3896C205.931 38.0599 209.717 38.5113 213.758 36.8962L218.708 29.7918C220.507 22.7142 213.412 16.3655 213.187 15.8441C212.964 15.3242 212.522 11.3936 212.522 11.3936C212.522 8.96793 210.625 7 208.285 7C205.944 7 204.23 8.97754 204.047 11.3936C204 12.0151 204.44 16.0191 204.552 17.9265C202.434 20.0627 198.812 25.3769 199.008 30.3672L204.46 37.3896Z" fill="#263740"/>
<path d="M213.501 15.8446C213.29 15.3247 212.872 11.3939 212.872 11.3939C212.872 8.96804 211.077 7 208.863 7C208.622 7 208.389 7.02763 208.164 7.07249C210.04 7.43935 211.466 9.23317 211.466 11.3943C211.466 11.3943 211.884 15.3251 212.095 15.845C212.308 16.366 219.019 22.7155 217.318 29.7935L212.635 36.8979C210.993 37.5912 209.398 37.9028 208 37.9805C209.677 38.0758 211.817 37.8387 214.042 36.8979L218.724 29.7935C220.425 22.7151 213.714 16.366 213.501 15.8446Z" fill="#1E2C33"/>
<path d="M214.651 37.8779C213.677 36.136 213.811 30.5336 214.953 29.2486C216.553 28.7454 220.616 28.8412 220.956 31.1122C221.491 34.6575 217.012 38.7638 214.651 37.8779Z" fill="#F5F5F5"/>
<path d="M220.956 31.113C220.701 29.4063 218.346 28.9272 216.512 29.0086C218.179 29.0805 219.969 29.637 220.19 31.113C220.649 34.1572 217.417 37.6114 215 37.9699C217.422 38.3812 221.465 34.4938 220.956 31.113Z" fill="#E6E6E6"/>
<path d="M205 37.9483C204.936 35.7681 202.38 30.7282 200.302 30.0557C198.825 29.527 195.26 32.8775 196.137 35.1967C197.506 38.8109 203.439 40.1124 205 37.9483Z" fill="#F5F5F5"/>
<path d="M199.833 30.0549C199.597 29.9778 199.311 29.9852 199 30.0567C201.283 30.7381 204.089 35.7705 204.159 37.9495C203.655 38.5864 202.732 38.9213 201.645 38.9871C203.089 39.0712 204.369 38.7456 205 37.9495C204.929 35.7683 202.117 30.7272 199.833 30.0549Z" fill="#E6E6E6"/>
<path d="M207 16.0731C207.262 15.7607 208.056 15.2942 208.804 15.0243C209.626 14.9283 210.476 15.1358 210.945 15.3173C211.255 16.8674 210.203 16.5028 209.208 18C207.634 17.1298 207.218 17.1536 207 16.0731Z" fill="#FFD464"/>
<path d="M232.818 243.646C232.818 245.744 234.577 247.461 236.727 247.461H238.03V253.819C238.03 255.575 239.488 256.998 241.288 256.998C243.087 256.998 244.545 255.575 244.545 253.819V247.461H248.455V253.819C248.455 255.575 249.913 256.998 251.712 256.998C253.512 256.998 254.97 255.575 254.97 253.819V247.461H256.273C258.423 247.461 260.182 245.744 260.182 243.646V224.57H232.818V243.646Z" fill="#649937"/>
<path d="M264.742 223.938C262.943 223.938 261.485 225.361 261.485 227.117V239.834C261.485 241.589 262.943 243.013 264.742 243.013C266.542 243.013 268 241.589 268 239.834V227.117C268 225.361 266.542 223.938 264.742 223.938Z" fill="#649937"/>
<path d="M228.258 223.938C226.458 223.938 225 225.361 225 227.117V239.834C225 241.589 226.458 243.013 228.258 243.013C230.057 243.013 231.515 241.589 231.515 239.834V227.117C231.515 225.361 230.057 223.938 228.258 223.938Z" fill="#649937"/>
<path d="M253.905 212.083L255.664 208.941C255.836 208.633 255.72 208.247 255.404 208.079C255.089 207.91 254.692 208.023 254.52 208.332L252.777 211.445C250.896 210.493 248.765 209.948 246.5 209.948C244.235 209.948 242.104 210.493 240.223 211.445L238.48 208.332C238.307 208.024 237.911 207.909 237.596 208.079C237.28 208.247 237.164 208.633 237.336 208.941L239.095 212.083C235.322 214.46 232.818 218.592 232.818 223.301H260.182C260.182 218.592 257.678 214.46 253.905 212.083ZM240.636 218.85C239.917 218.85 239.333 218.28 239.333 217.578C239.333 216.876 239.917 216.306 240.636 216.306C241.356 216.306 241.939 216.876 241.939 217.578C241.939 218.28 241.356 218.85 240.636 218.85ZM252.364 218.85C251.644 218.85 251.061 218.28 251.061 217.578C251.061 216.876 251.644 216.306 252.364 216.306C253.083 216.306 253.667 216.876 253.667 217.578C253.667 218.28 253.083 218.85 252.364 218.85Z" fill="#649937"/>
<path d="M246.5 247.461H248.455V253.819C248.455 255.575 249.913 256.998 251.712 256.998C253.512 256.998 254.97 255.575 254.97 253.819V247.461H256.273C258.423 247.461 260.182 245.744 260.182 243.646V224.57H246.5V247.461Z" fill="#5C8C32"/>
<path d="M253.905 212.083L255.664 208.941C255.836 208.633 255.72 208.247 255.404 208.078C255.089 207.91 254.692 208.023 254.52 208.331L252.777 211.444C250.896 210.493 248.765 209.947 246.5 209.947V223.3H260.182C260.182 218.591 257.678 214.46 253.905 212.083ZM252.364 218.849C251.644 218.849 251.061 218.28 251.061 217.578C251.061 216.876 251.644 216.306 252.364 216.306C253.083 216.306 253.667 216.876 253.667 217.578C253.667 218.28 253.083 218.849 252.364 218.849Z" fill="#5C8C32"/>
<path d="M264.742 223.934C262.943 223.934 261.485 225.357 261.485 227.113V239.83C261.485 241.585 262.943 243.009 264.742 243.009C266.542 243.009 268 241.585 268 239.83V227.113C268 225.357 266.542 223.934 264.742 223.934Z" fill="#5C8C32"/>
<path d="M169.289 327.716C170.428 327.552 172.941 327.199 173.388 327.88C173.835 328.548 172.888 331.36 172.462 332.609C172.334 332.987 172.611 333.138 172.898 332.848C174.772 330.982 175.262 327.085 174.879 326.518C174.495 325.963 171.206 325.484 169.204 327.149C168.895 327.413 168.948 327.766 169.289 327.716Z" fill="#FF9900"/>
<path d="M158.867 335C163.213 335 168.268 333.12 171.748 329.579C172.319 328.996 171.822 328.107 171.24 328.471C167.338 330.744 163.097 331.852 159.237 331.852C153.515 331.852 147.984 329.681 143.501 326.096C143.109 325.775 142.813 326.329 143.141 326.737C147.287 331.896 152.775 335 158.867 335Z" fill="#FF9900"/>
<path d="M151.865 319.031C151.865 319.542 151.908 319.957 151.984 320.261C152.081 320.604 152.197 320.936 152.332 321.257C152.387 321.368 152.408 321.478 152.408 321.575C152.408 321.714 152.343 321.852 152.202 321.99L151.516 322.571C151.419 322.654 151.32 322.695 151.234 322.695C151.125 322.695 151.016 322.626 150.907 322.502C150.761 322.301 150.629 322.084 150.516 321.852C150.394 321.586 150.281 321.314 150.178 321.036C149.33 322.308 148.264 322.944 146.98 322.944C146.067 322.944 145.338 322.612 144.805 321.949C144.272 321.285 144 320.399 144 319.293C144 318.118 144.326 317.163 144.99 316.444C145.653 315.725 146.535 315.366 147.655 315.366C148.025 315.366 148.405 315.407 148.808 315.476C149.21 315.546 149.624 315.656 150.059 315.781V314.771C150.059 313.72 149.885 312.987 149.547 312.558C149.2 312.13 148.612 311.922 147.775 311.922C147.394 311.922 147.002 311.977 146.6 312.102C146.2 312.223 145.807 312.38 145.425 312.572C145.301 312.643 145.174 312.703 145.044 312.752C144.968 312.78 144.914 312.794 144.87 312.794C144.718 312.794 144.642 312.655 144.642 312.365V311.687C144.642 311.466 144.664 311.3 144.718 311.203C144.772 311.106 144.87 311.01 145.022 310.913C145.403 310.664 145.86 310.456 146.393 310.29C146.926 310.111 147.492 310.027 148.09 310.027C149.384 310.027 150.331 310.401 150.94 311.148C151.538 311.894 151.843 313.029 151.843 314.55V319.031H151.865ZM147.448 321.133C147.807 321.133 148.177 321.05 148.569 320.884C148.96 320.718 149.308 320.413 149.602 319.999C149.776 319.736 149.906 319.446 149.972 319.114C150.037 318.782 150.08 318.381 150.08 317.91V317.33C149.751 317.228 149.417 317.149 149.08 317.095C148.741 317.04 148.399 317.012 148.057 317.011C147.329 317.011 146.796 317.191 146.437 317.565C146.078 317.938 145.904 318.464 145.904 319.155C145.904 319.805 146.034 320.289 146.306 320.621C146.567 320.967 146.948 321.133 147.448 321.133H147.448ZM156.183 322.626C155.987 322.626 155.856 322.585 155.769 322.488C155.682 322.405 155.606 322.211 155.541 321.948L152.985 311.258C152.92 310.982 152.887 310.802 152.887 310.705C152.887 310.484 152.974 310.36 153.148 310.36H154.214C154.421 310.36 154.562 310.401 154.638 310.498C154.725 310.581 154.79 310.775 154.856 311.037L156.683 320.192L158.38 311.037C158.434 310.76 158.5 310.581 158.587 310.498C158.674 310.415 158.826 310.36 159.022 310.36H159.892C160.099 310.36 160.24 310.401 160.327 310.498C160.414 310.581 160.49 310.775 160.534 311.037L162.252 320.303L164.134 311.037C164.199 310.76 164.275 310.581 164.352 310.498C164.439 310.415 164.58 310.36 164.776 310.36H165.787C165.962 310.36 166.059 310.47 166.059 310.705C166.059 310.774 166.049 310.843 166.038 310.927C166.021 311.044 165.995 311.16 165.962 311.272L163.34 321.963C163.275 322.239 163.199 322.419 163.112 322.502C163.025 322.585 162.883 322.64 162.698 322.64H161.763C161.556 322.64 161.415 322.599 161.328 322.502C161.241 322.405 161.165 322.225 161.121 321.949L159.435 313.029L157.76 321.935C157.706 322.212 157.64 322.391 157.553 322.488C157.466 322.585 157.314 322.626 157.118 322.626L156.183 322.626ZM170.16 323C169.595 323 169.029 322.917 168.485 322.751C167.941 322.585 167.517 322.405 167.234 322.197C167.06 322.073 166.941 321.934 166.897 321.81C166.855 321.688 166.832 321.556 166.832 321.423V320.718C166.832 320.427 166.919 320.289 167.082 320.289C167.147 320.289 167.212 320.303 167.278 320.33C167.343 320.358 167.441 320.413 167.55 320.469C167.934 320.684 168.335 320.846 168.746 320.953C169.181 321.063 169.606 321.119 170.041 321.119C170.726 321.119 171.259 320.967 171.629 320.662C171.999 320.358 172.194 319.916 172.194 319.348C172.194 318.961 172.096 318.643 171.901 318.381C171.705 318.118 171.335 317.883 170.802 317.662L169.225 317.039C168.431 316.721 167.843 316.251 167.484 315.628C167.126 315.02 166.941 314.342 166.941 313.623C166.941 313.042 167.038 312.531 167.234 312.088C167.43 311.646 167.691 311.258 168.017 310.954C168.344 310.636 168.713 310.401 169.149 310.235C169.584 310.069 170.041 310 170.519 310C170.759 310 171.009 310.014 171.248 310.055C171.498 310.097 171.727 310.152 171.955 310.208C172.172 310.277 172.379 310.346 172.575 310.428C172.771 310.512 172.923 310.595 173.032 310.678C173.184 310.788 173.293 310.899 173.358 311.023C173.424 311.134 173.456 311.286 173.456 311.48V312.13C173.456 312.42 173.369 312.573 173.206 312.573C173.119 312.573 172.978 312.517 172.793 312.406C172.172 312.047 171.476 311.867 170.704 311.867C170.084 311.867 169.595 311.992 169.257 312.254C168.92 312.517 168.746 312.918 168.746 313.485C168.746 313.872 168.855 314.204 169.073 314.467C169.29 314.73 169.692 314.993 170.269 315.228L171.814 315.85C172.597 316.168 173.162 316.611 173.5 317.178C173.837 317.745 174 318.395 174 319.114C174 319.708 173.902 320.248 173.717 320.718C173.521 321.188 173.26 321.603 172.923 321.935C172.586 322.281 172.184 322.53 171.716 322.709C171.226 322.903 170.715 323 170.16 323Z" fill="#252F3E"/>
<path d="M164.808 153.689C170.3 150.739 174 145.265 174 138.994C174 136.031 173.176 133.254 171.731 130.836C171.818 131.381 171.861 131.965 171.861 132.59C171.861 134.317 171.514 136.257 170.459 138.675L164.808 153.689Z" fill="#3475B2" stroke="#3475B2" stroke-width="1.5625"/>
<path d="M155.832 140.48L150.282 155.308C151.945 155.76 153.693 155.999 155.514 155.999C157.668 155.999 159.735 155.654 161.657 155.029C161.614 154.949 161.556 154.883 161.527 154.803L155.832 140.48Z" fill="#3475B2" stroke="#3475B2" stroke-width="1.5625"/>
<path d="M147.435 154.299L138.604 132.07C137.578 134.183 137 136.521 137 138.993C137 145.715 141.249 151.548 147.435 154.299Z" fill="#3475B2" stroke="#3475B2" stroke-width="1.5625"/>
<path d="M146.163 129.454C147.161 129.401 147.276 130.742 146.279 130.862C146.279 130.862 145.282 130.968 144.169 131.021L150.904 149.436L154.951 138.276L152.06 131.021C151.063 130.968 150.123 130.862 150.123 130.862C149.126 130.809 149.242 129.401 150.239 129.454C150.239 129.454 153.289 129.666 155.11 129.666C157.046 129.666 160.038 129.454 160.038 129.454C161.036 129.401 161.151 130.742 160.154 130.862C160.154 130.862 159.157 130.968 158.044 131.021L164.736 149.304L166.586 143.644C167.525 141.438 167.988 139.605 167.988 138.143C167.988 136.044 167.164 134.582 166.455 133.453C165.516 132.058 164.634 130.862 164.634 129.467C164.634 127.899 165.921 126.451 167.742 126.451C167.814 126.451 167.901 126.464 167.973 126.464C164.678 123.687 160.298 122 155.486 122C149.025 122 143.33 125.056 140.021 129.666C140.454 129.68 140.859 129.693 141.206 129.693C143.171 129.666 146.163 129.454 146.163 129.454Z" fill="#3475B2" stroke="#3475B2" stroke-width="1.5625"/>
</svg>
