<svg width="323" height="423" viewBox="0 0 323 423" fill="none" xmlns="http://www.w3.org/2000/svg">
<path d="M56 289C72.0163 289 85 276.016 85 260C85 243.984 72.0163 231 56 231C39.9837 231 27 243.984 27 260C27 276.016 39.9837 289 56 289Z" fill="white"/>
<path d="M173 185C184.046 185 193 176.046 193 165C193 153.954 184.046 145 173 145C161.954 145 153 153.954 153 165C153 176.046 161.954 185 173 185Z" fill="#0062FF"/>
<path d="M52.6566 50.8536C52.629 50.6536 52.4538 50.5429 52.309 50.5307C52.1645 50.5186 49.1059 50.2919 49.1059 50.2919C49.1059 50.2919 46.9816 48.183 46.7485 47.9496C46.5152 47.7163 46.0596 47.7872 45.8827 47.8393C45.8567 47.847 45.4186 47.9822 44.694 48.2064C43.9844 46.1645 42.7321 44.2881 40.5289 44.2881C40.4681 44.2881 40.4055 44.2905 40.3429 44.2941C39.7163 43.4655 38.9401 43.1055 38.2697 43.1055C33.1375 43.1055 30.6856 49.5212 29.9169 52.7815C27.9226 53.3994 26.5059 53.8388 26.3249 53.8956C25.2118 54.2448 25.1766 54.2799 25.0304 55.3288C24.9204 56.1229 22.0078 78.6474 22.0078 78.6474L44.7034 82.8997L57.0007 80.2394C57.0007 80.2394 52.6837 51.0536 52.6566 50.8536ZM43.4396 48.5944L41.5192 49.1888C41.5199 49.0534 41.5206 48.9203 41.5206 48.7746C41.5206 47.5056 41.3444 46.4838 41.0618 45.6738C42.197 45.8163 42.953 47.1079 43.4396 48.5944ZM39.6536 45.9255C39.9692 46.7163 40.1744 47.8512 40.1744 49.3827C40.1744 49.4611 40.1737 49.5327 40.173 49.6052C38.9241 49.992 37.567 50.412 36.2069 50.8334C36.9706 47.886 38.4021 46.4625 39.6536 45.9255ZM38.1288 44.482C38.3503 44.482 38.5734 44.5572 38.787 44.7042C37.1422 45.4782 35.3792 47.4275 34.6347 51.3203L31.4996 52.2912C32.3716 49.322 34.4425 44.482 38.1288 44.482Z" fill="#5E8E3E"/>
<path d="M52.3076 50.5324C52.1631 50.5204 49.1045 50.2937 49.1045 50.2937C49.1045 50.2937 46.9802 48.1848 46.7471 47.9513C46.6598 47.8645 46.5422 47.82 46.4192 47.8008L44.7031 82.9012L56.9993 80.2412C56.9993 80.2412 52.6823 51.0553 52.6552 50.8553C52.6276 50.6553 52.4524 50.5446 52.3076 50.5324Z" fill="#72A94E"/>
<path d="M40.5286 57.3286L39.0123 61.839C39.0123 61.839 37.6838 61.13 36.0553 61.13C33.6679 61.13 33.5477 62.6282 33.5477 63.0057C33.5477 65.0657 38.9176 65.8551 38.9176 70.6803C38.9176 74.4766 36.5098 76.9211 33.2632 76.9211C29.3673 76.9211 27.375 74.4964 27.375 74.4964L28.4182 71.0499C28.4182 71.0499 30.4661 72.8081 32.1942 72.8081C33.3234 72.8081 33.7827 71.919 33.7827 71.2694C33.7827 68.5823 29.3772 68.4625 29.3772 64.047C29.3772 60.3307 32.0446 56.7344 37.429 56.7344C39.5036 56.7344 40.5286 57.3286 40.5286 57.3286Z" fill="white"/>
<path d="M255.5 55C270.688 55 283 42.6878 283 27.5C283 12.3122 270.688 0 255.5 0C240.312 0 228 12.3122 228 27.5C228 42.6878 240.312 55 255.5 55Z" fill="#DEE8E9"/>
<mask id="mask0_78_917" style="mask-type:luminance" maskUnits="userSpaceOnUse" x="241" y="13" width="30" height="30">
<path d="M271 13H241V43H271V13Z" fill="white"/>
</mask>
<g mask="url(#mask0_78_917)">
<mask id="mask1_78_917" style="mask-type:luminance" maskUnits="userSpaceOnUse" x="241" y="13" width="30" height="30">
<path d="M271 13H241V43H271V13Z" fill="white"/>
</mask>
<g mask="url(#mask1_78_917)">
<path d="M247.649 31.1293L246.604 35.0276L242.788 35.1084C241.647 32.9927 241 30.5722 241 27.9999C241 25.5125 241.605 23.1669 242.677 21.1016L246.076 21.7245L247.565 25.1021C247.253 26.0103 247.083 26.9853 247.083 27.9999C247.083 29.101 247.283 30.156 247.649 31.1293Z" fill="#FBBB00"/>
<path d="M270.736 25.1992C270.909 26.1066 270.998 27.0437 270.998 28.0014C270.998 29.0753 270.885 30.1229 270.67 31.1333C269.94 34.5718 268.032 37.5742 265.389 39.6989L265.388 39.6982L261.108 39.4797L260.503 35.6984C262.256 34.6698 263.627 33.0603 264.349 31.1333H256.328V25.1992H264.466H270.736Z" fill="#518EF8"/>
<path d="M265.391 39.6962L265.392 39.697C262.822 41.7633 259.556 42.9995 256.001 42.9995C250.289 42.9995 245.323 39.8067 242.789 35.108L247.65 31.1289C248.917 34.5096 252.178 36.9163 256.001 36.9163C257.645 36.9163 259.184 36.472 260.506 35.6965L265.391 39.6962Z" fill="#28B446"/>
<path d="M265.573 16.4533L260.714 20.4316C259.346 19.5769 257.73 19.0832 255.999 19.0832C252.089 19.0832 248.766 21.6002 247.563 25.1022L242.677 21.1016H242.676C245.172 16.2885 250.201 13 255.999 13C259.638 13 262.975 14.2964 265.573 16.4533Z" fill="#F14336"/>
</g>
</g>
<path d="M184 168.326H162V156.047C162 155.504 162.202 154.983 162.56 154.599C162.919 154.216 163.406 154 163.913 154H182.087C182.594 154 183.081 154.216 183.44 154.599C183.798 154.983 184 155.504 184 156.047V168.326Z" fill="#DAD7E5"/>
<path d="M182.087 171.394H163.913C163.406 171.394 162.919 171.178 162.56 170.795C162.202 170.411 162 169.89 162 169.347V168.324H184V169.347C184 169.89 183.798 170.411 183.44 170.795C183.081 171.178 182.594 171.394 182.087 171.394Z" fill="#7C7D7D"/>
<path d="M176.348 175.488H169.652L170.609 171.395H175.391L176.348 175.488Z" fill="#7C7D7D"/>
<path d="M178.261 176H167.739C167.612 176 167.491 175.946 167.401 175.85C167.311 175.754 167.261 175.624 167.261 175.488C167.261 175.352 167.311 175.222 167.401 175.126C167.491 175.03 167.612 174.977 167.739 174.977H178.261C178.388 174.977 178.509 175.03 178.599 175.126C178.689 175.222 178.739 175.352 178.739 175.488C178.739 175.624 178.689 175.754 178.599 175.85C178.509 175.946 178.388 176 178.261 176Z" fill="#747575"/>
<path d="M184 156.047V167.302H167.261C166.5 167.302 165.77 166.979 165.232 166.403C164.694 165.828 164.391 165.047 164.391 164.233V154H182.087C182.594 154 183.081 154.216 183.44 154.599C183.798 154.983 184 155.504 184 156.047Z" fill="#EDEBF2"/>
<path d="M184 168.324V169.347C184 169.89 183.798 170.411 183.44 170.795C183.081 171.178 182.594 171.394 182.087 171.394H166.304C165.797 171.394 165.31 171.178 164.952 170.795C164.593 170.411 164.391 169.89 164.391 169.347V168.324H184Z" fill="#919191"/>
<path d="M175.63 172.418H170.37L170.609 171.395H175.391L175.63 172.418Z" fill="#747575"/>
<path d="M177.783 158.094C176.927 162.187 177.108 161.337 176.826 162.698H169.652L168.992 158.094H177.783Z" fill="#6FABE6"/>
<path d="M177.783 158.094L177.036 161.675H173.55C172.864 161.675 172.201 161.412 171.681 160.935C171.161 160.457 170.818 159.796 170.714 159.071L170.575 158.094H177.783Z" fill="#82BCF4"/>
<path d="M170.13 162.698C170.004 162.698 169.882 162.752 169.792 162.848C169.703 162.944 169.652 163.074 169.652 163.21C169.537 163.211 169.425 163.168 169.337 163.088C169.249 163.008 169.191 162.897 169.174 162.775C169.045 161.91 169.174 162.775 168.28 156.558H167.261C167.134 156.558 167.012 156.505 166.923 156.409C166.833 156.313 166.783 156.183 166.783 156.047C166.783 155.911 166.833 155.781 166.923 155.685C167.012 155.589 167.134 155.535 167.261 155.535H168.696C168.811 155.534 168.923 155.577 169.011 155.657C169.099 155.737 169.157 155.848 169.174 155.97C170.245 163.44 170.13 162.611 170.13 162.698Z" fill="#374F68"/>
<path d="M175.391 164.746H170.13C169.942 164.755 169.754 164.725 169.576 164.657C169.399 164.589 169.235 164.484 169.096 164.348C168.814 164.075 168.645 163.692 168.626 163.285C168.608 162.878 168.741 162.48 168.998 162.178C169.254 161.876 169.611 161.695 169.992 161.676C170.14 162.725 170.13 162.622 170.13 162.699C170.004 162.699 169.882 162.753 169.792 162.849C169.703 162.945 169.652 163.075 169.652 163.211C169.652 163.346 169.703 163.476 169.792 163.572C169.882 163.668 170.004 163.722 170.13 163.722H175.391C175.518 163.722 175.64 163.776 175.729 163.872C175.819 163.968 175.87 164.098 175.87 164.234C175.87 164.37 175.819 164.5 175.729 164.596C175.64 164.692 175.518 164.746 175.391 164.746Z" fill="#374F68"/>
<path d="M169.724 163.465C169.682 163.542 169.66 163.63 169.66 163.719C169.659 163.808 169.681 163.895 169.722 163.973C169.763 164.051 169.822 164.115 169.894 164.161C169.966 164.206 170.047 164.231 170.13 164.232C175.75 164.232 175.597 164.13 175.798 164.488C175.839 164.411 175.862 164.323 175.862 164.234C175.862 164.145 175.841 164.058 175.8 163.98C175.759 163.902 175.699 163.838 175.628 163.792C175.556 163.747 175.475 163.722 175.391 163.721C169.772 163.721 169.925 163.823 169.724 163.465Z" fill="#2C435E"/>
<path d="M171.565 165.766C171.565 165.63 171.515 165.5 171.425 165.404C171.335 165.308 171.214 165.254 171.087 165.254C170.96 165.254 170.838 165.308 170.749 165.404C170.659 165.5 170.609 165.63 170.609 165.766C170.609 165.901 170.659 166.031 170.749 166.127C170.838 166.223 170.96 166.277 171.087 166.277C171.214 166.277 171.335 166.223 171.425 166.127C171.515 166.031 171.565 165.901 171.565 165.766Z" fill="#374F68"/>
<path d="M174.435 165.766C174.435 165.63 174.384 165.5 174.295 165.404C174.205 165.308 174.083 165.254 173.957 165.254C173.83 165.254 173.708 165.308 173.618 165.404C173.529 165.5 173.478 165.63 173.478 165.766C173.478 165.901 173.529 166.031 173.618 166.127C173.708 166.223 173.83 166.277 173.957 166.277C174.083 166.277 174.205 166.223 174.295 166.127C174.384 166.031 174.435 165.901 174.435 165.766Z" fill="#374F68"/>
<path d="M180.513 164.38C180.604 164.476 180.654 164.607 180.654 164.743C180.654 164.88 180.604 165.01 180.513 165.107C180.423 165.203 180.301 165.257 180.174 165.257C180.047 165.257 179.924 165.203 179.834 165.107L179.217 164.441V164.743C179.217 164.879 179.167 165.009 179.077 165.105C178.988 165.201 178.866 165.255 178.739 165.255C178.612 165.255 178.491 165.201 178.401 165.105C178.311 165.009 178.261 164.879 178.261 164.743C178.261 162.431 177.974 162.697 180.174 162.697C180.301 162.697 180.422 162.751 180.512 162.847C180.602 162.943 180.652 163.073 180.652 163.208C180.652 163.344 180.602 163.474 180.512 163.57C180.422 163.666 180.301 163.72 180.174 163.72H179.892L180.513 164.38Z" fill="#6FABE6"/>
<path d="M180.59 164.996L178.51 162.771C178.562 162.699 179.055 162.699 180.174 162.699C180.301 162.699 180.422 162.753 180.512 162.849C180.602 162.945 180.652 163.075 180.652 163.211C180.652 163.347 180.602 163.477 180.512 163.573C180.422 163.669 180.301 163.722 180.174 163.722H179.892C180.537 164.408 180.81 164.592 180.59 164.996Z" fill="#82BCF4"/>
<mask id="mask2_78_917" style="mask-type:luminance" maskUnits="userSpaceOnUse" x="122" y="314" width="47" height="47">
<path d="M169 314H122V361H169V314Z" fill="white"/>
</mask>
<g mask="url(#mask2_78_917)">
<path d="M140.479 318.566L122.854 320.855C122.363 320.918 121.996 321.339 122 321.834V335.543C122 336.083 122.438 336.522 122.979 336.522H140.604C141.145 336.522 141.583 336.083 141.583 335.543V319.535C141.583 319.254 141.462 318.986 141.25 318.801C141.038 318.618 140.758 318.532 140.479 318.566Z" fill="#F44336"/>
<path d="M168.667 315.224C168.457 315.035 168.176 314.946 167.896 314.98L144.396 318.044C143.904 318.108 143.538 318.528 143.542 319.024V335.542C143.542 336.083 143.98 336.521 144.521 336.521H168.021C168.562 336.521 169 336.083 169 335.542V315.959C169 315.678 168.878 315.41 168.667 315.224Z" fill="#7FBA00"/>
<path d="M140.604 338.48H122.979C122.438 338.48 122 338.919 122 339.46V353.168C121.996 353.663 122.363 354.084 122.854 354.147L140.479 356.446C140.521 356.449 140.562 356.449 140.604 356.446C141.145 356.446 141.583 356.008 141.583 355.467V339.46C141.583 338.919 141.145 338.48 140.604 338.48Z" fill="#2196F3"/>
<path d="M168.021 338.48H144.521C143.98 338.48 143.542 338.919 143.542 339.46V355.978C143.538 356.474 143.904 356.894 144.396 356.957L167.896 360.022C167.937 360.025 167.979 360.025 168.021 360.022C168.562 360.022 169 359.584 169 359.043V339.46C169 338.919 168.562 338.48 168.021 338.48Z" fill="#FFC107"/>
</g>
<mask id="mask3_78_917" style="mask-type:luminance" maskUnits="userSpaceOnUse" x="211" y="243" width="60" height="17">
<path d="M271 243H211V260H271V243Z" fill="white"/>
</mask>
<g mask="url(#mask3_78_917)">
<path d="M226.619 243H229.349V260H226.619V243ZM238.905 254.577C238.905 257.179 236.709 257.386 236.056 257.386C234.424 257.386 234.127 255.864 234.127 254.946V248.44H231.397V254.933C231.397 256.544 231.905 257.874 232.795 258.761C233.581 259.545 234.759 259.973 236.035 259.973C236.94 259.973 238.222 259.693 238.905 259.072V260H241.635V248.44H238.905V254.577ZM247.096 244.36H244.365V248.44H242.318V251.16H244.365V260H247.096V251.16H249.143V248.44H247.096V244.36ZM257.741 256.544C257.147 257.076 256.362 257.371 255.501 257.371C253.602 257.371 252.207 255.982 252.207 254.074C252.207 252.167 253.558 250.836 255.501 250.836C256.347 250.836 257.147 251.117 257.757 251.65L258.171 252.005L260.012 250.171L259.551 249.757C258.468 248.783 257.03 248.236 255.5 248.236C252.087 248.236 249.609 250.689 249.609 254.06C249.609 257.417 252.147 259.958 255.5 259.958C257.058 259.958 258.511 259.411 259.581 258.421L260.026 258.007L258.156 256.175L257.741 256.544ZM269.757 249.448C268.97 248.664 268.049 248.236 266.772 248.236C265.867 248.236 264.842 248.517 264.16 249.137V243H261.429V260H264.16V253.632C264.16 251.03 266.015 250.823 266.668 250.823C268.3 250.823 268.255 252.346 268.255 253.263V260H270.985V253.277C270.985 251.665 270.647 250.335 269.757 249.448Z" fill="#202124"/>
<path d="M255.411 252.137C255.934 252.137 256.436 252.344 256.806 252.713C257.177 253.081 257.385 253.582 257.385 254.103C257.385 254.625 257.177 255.125 256.806 255.494C256.436 255.863 255.934 256.07 255.411 256.07C254.887 256.07 254.385 255.863 254.015 255.494C253.645 255.125 253.437 254.625 253.437 254.103C253.437 253.582 253.645 253.081 254.015 252.713C254.385 252.344 254.887 252.137 255.411 252.137Z" fill="#FF3D2E"/>
<path d="M222.796 255.731C221.758 256.795 220.348 257.372 218.864 257.372C215.823 257.372 213.611 254.992 213.611 251.725C213.611 248.443 215.823 246.063 218.864 246.063C220.334 246.063 221.728 246.639 222.782 247.689L223.197 248.103L225.022 246.285L224.622 245.871C223.108 244.318 221.061 243.477 218.864 243.477C214.383 243.477 211.015 247.024 211.015 251.739C211.015 256.44 214.398 259.973 218.864 259.973C221.076 259.973 223.123 259.117 224.637 257.564L225.037 257.15L223.227 255.302L222.796 255.731Z" fill="#202124"/>
</g>
<path d="M43.0938 275H41.0312C40.4125 275 40 274.733 40 274.333V273H44.125V274.333C44.125 274.733 43.7125 275 43.0938 275ZM71.9688 275H69.9063C69.2875 275 68.875 274.733 68.875 274.333V273H73V274.333C73 274.733 72.5875 275 71.9688 275Z" fill="#263238"/>
<path d="M59.75 245H53.25C51.4083 245 50 246.083 50 247.5V250H52.1667V247.5C52.1667 247 52.6 246.667 53.25 246.667H59.75C60.4 246.667 60.8333 247 60.8333 247.5V250H63V247.5C63 246.083 61.5917 245 59.75 245Z" fill="#37474F"/>
<path d="M72.9 274H40.1C37.845 274 36 272.538 36 270.75V251.25C36 249.462 37.845 248 40.1 248H72.9C75.155 248 77 249.462 77 251.25V270.75C77 272.538 75.155 274 72.9 274Z" fill="#78909C"/>
</svg>
