<?xml version="1.0" encoding="iso-8859-1"?>
<!-- Generator: Adobe Illustrator 19.0.0, SVG Export Plug-In . SVG Version: 6.00 Build 0)  -->
<svg xmlns="http://www.w3.org/2000/svg" xmlns:xlink="http://www.w3.org/1999/xlink" version="1.1" id="Layer_1" x="0px" y="0px" viewBox="0 0 512 512" style="enable-background:new 0 0 512 512;" xml:space="preserve">
<path style="fill:#FF5948;" d="M430.376,359.985h-20.914c-1.149,0-2.081-0.932-2.081-2.081V189.696c0-1.149,0.932-2.081,2.081-2.081  h20.914c1.149,0,2.081,0.932,2.081,2.081v168.207C432.457,359.052,431.525,359.985,430.376,359.985z"/>
<rect x="210.202" y="107.781" style="fill:#FFD359;" width="146.84" height="104.124"/>
<rect x="210.202" y="107.781" style="fill:#DB9840;" width="20.898" height="104.124"/>
<rect x="243.587" y="163.004" style="fill:#FF5948;" width="20.691" height="20.691"/>
<path style="fill:#CCA38D;" d="M165.607,340.999H37.084c-1.155,0-2.09-0.935-2.09-2.09V205.172c0-1.155,0.935-2.09,2.09-2.09  h128.522c1.155,0,2.09,0.935,2.09,2.09v133.739C167.697,340.064,166.76,340.999,165.607,340.999z"/>
<path style="fill:#A68472;" d="M55.893,338.91V205.171c0-1.154,0.935-2.09,2.09-2.09H37.084c-1.155,0-2.09,0.936-2.09,2.09V338.91  c0,1.155,0.935,2.09,2.09,2.09h20.898C56.828,340.999,55.893,340.064,55.893,338.91z"/>
<rect x="194.476" y="211.905" style="fill:#CCA38D;" width="178.28" height="129.097"/>
<rect x="194.476" y="211.905" style="fill:#A68472;" width="20.571" height="129.097"/>
<path style="fill:#968789;" d="M453.096,380.705H12.145c-2.307,0-4.178-1.87-4.178-4.177v-31.352c0-2.307,1.87-4.177,4.178-4.177  h440.952c2.307,0,4.177,1.87,4.177,4.177v31.352C457.273,378.835,455.403,380.705,453.096,380.705z"/>
<path style="fill:#7D7072;" d="M28.865,376.529v-31.352c0-2.307,1.87-4.177,4.177-4.177H12.145c-2.307,0-4.178,1.87-4.178,4.177  v31.352c0,2.307,1.87,4.177,4.178,4.177h20.898C30.736,380.705,28.865,378.835,28.865,376.529z"/>
<rect x="202.856" y="100.666" style="fill:#FF5948;" width="161.52" height="38.713"/>
<rect x="202.856" y="100.666" style="fill:#D44A3C;" width="20.866" height="38.713"/>
<path style="fill:#968789;" d="M437.564,202.47h-35.29c-1.828,0-3.308-1.482-3.308-3.308v-35.29c0-1.828,1.482-3.308,3.308-3.308  h35.29c1.828,0,3.308,1.482,3.308,3.308v35.29C440.872,200.988,439.391,202.47,437.564,202.47z"/>
<path style="fill:#7D7072;" d="M419.918,199.161v-35.29c0-1.828,1.482-3.308,3.308-3.308h-20.953c-1.828,0-3.308,1.481-3.308,3.308  v35.29c0,1.828,1.482,3.308,3.308,3.308h20.953C421.4,202.47,419.918,200.988,419.918,199.161z"/>
<circle style="fill:#FF5948;" cx="485.48" cy="116.088" r="18.548"/>
<g>
	<circle style="fill:#5E5456;" cx="58.828" cy="393.561" r="20.898"/>
	<circle style="fill:#5E5456;" cx="378.263" cy="393.561" r="20.898"/>
</g>
<path d="M284.742,170.922h38.951c4.33,0,7.841-3.506,7.841-7.829c0-4.324-3.511-7.829-7.841-7.829h-38.951  c-4.33,0-7.841,3.506-7.841,7.829C276.901,167.417,280.412,170.922,284.742,170.922z"/>
<path d="M323.693,175.935h-38.951c-4.33,0-7.841,3.506-7.841,7.829c0,4.324,3.511,7.829,7.841,7.829h38.951  c4.33,0,7.841-3.506,7.841-7.829C331.534,179.44,328.024,175.935,323.693,175.935z"/>
<path d="M264.28,155.265h-20.702c-4.33,0-7.841,3.506-7.841,7.829v20.671c0,4.324,3.511,7.829,7.841,7.829h20.702  c4.33,0,7.841-3.506,7.841-7.829v-20.671C272.121,158.769,268.61,155.265,264.28,155.265z M256.439,175.935h-5.02v-5.012h5.02  V175.935z"/>
<path d="M104.286,352.923c-4.33,0-7.841,3.506-7.841,7.829s3.511,7.829,7.841,7.829h73.876c4.33,0,7.841-3.506,7.841-7.829  s-3.511-7.829-7.841-7.829H104.286z"/>
<path d="M324.521,368.582c4.33,0,7.841-3.506,7.841-7.829s-3.511-7.829-7.841-7.829h-73.876c-4.33,0-7.841,3.506-7.841,7.829  s3.511,7.829,7.841,7.829H324.521z"/>
<path d="M485.602,89.861c-14.555,0-26.398,11.825-26.398,26.36c0,4.195,0.992,8.162,2.745,11.686l-24.962,24.918h-34.638  c-6.148,0-11.15,4.996-11.15,11.134v35.256c0,5.195,3.587,9.558,8.414,10.781v123.095h-18.949V211.945  c0-4.324-3.511-7.829-7.841-7.829h-7.886v-56.827c4.097-0.258,7.342-3.648,7.342-7.804v-38.674c0-4.324-3.511-7.829-7.841-7.829  H202.835c-4.33,0-7.841,3.506-7.841,7.829v38.675c0,4.158,3.249,7.549,7.348,7.804v56.827h-7.889c-4.33,0-7.841,3.506-7.841,7.829  v42.963c0,0.01-0.001,0.02-0.001,0.03c0,0.01,0.001,0.02,0.001,0.03V297.9c0,0.01-0.001,0.02-0.001,0.03  c0,0.01,0.001,0.02,0.001,0.03v35.133h-11.116V205.22c0-0.38-0.026-0.754-0.068-1.123c0.293-2.363-0.486-4.828-2.336-6.606  c-1.777-1.707-4.151-2.408-6.422-2.122c-0.364-0.041-0.731-0.066-1.105-0.066h-36.057c-4.33,0-7.841,3.506-7.841,7.829  s3.511,7.829,7.841,7.829h19.723l-47.96,49.772l-47.96-49.772h33.856c4.33,0,7.841-3.506,7.841-7.829s-3.511-7.829-7.841-7.829  h-50.19c-0.374,0-0.743,0.025-1.107,0.066c-2.27-0.285-4.644,0.415-6.421,2.122c-1.851,1.777-2.628,4.243-2.336,6.606  c-0.042,0.369-0.068,0.743-0.068,1.123v127.871H12.023c-6.63,0-12.023,5.38-12.023,11.994v31.327  c0,6.619,5.393,12.005,12.023,12.005h18.404c-0.288,1.629-0.448,3.303-0.448,5.013c0,15.829,12.897,28.708,28.749,28.708  s28.749-12.878,28.749-28.708c0-1.71-0.159-3.384-0.448-5.013h103.981c4.33,0,7.841-3.506,7.841-7.829  c0-4.324-3.511-7.829-7.841-7.829H78.645c-5.171-4.97-12.191-8.035-19.918-8.035s-14.747,3.066-19.918,8.035H15.682v-24.01h433.85  v24.01h-51.288c-5.171-4.97-12.191-8.035-19.918-8.035c-7.727,0-14.747,3.066-19.918,8.035H234.394c-4.33,0-7.841,3.506-7.841,7.829  c0,4.324,3.511,7.829,7.841,7.829h115.632c-0.288,1.629-0.448,3.303-0.448,5.013c0,15.829,12.897,28.708,28.749,28.708  c15.852,0,28.749-12.878,28.749-28.708c0-1.71-0.159-3.384-0.448-5.013h46.573c6.624,0,12.012-5.385,12.012-12.005v-31.327  c0-6.613-5.389-11.994-12.012-11.994h-12.817v-52.038c0-4.324-3.511-7.829-7.841-7.829s-7.841,3.506-7.841,7.829v52.038h-9.409  V210.351h9.409v28.249c0,4.324,3.511,7.829,7.841,7.829s7.841-3.506,7.841-7.829v-28.599c4.833-1.219,8.424-5.585,8.424-10.784  V163.96c0-0.255-0.021-0.505-0.039-0.754l24.001-23.958c3.801,2.121,8.176,3.334,12.831,3.334c14.555,0,26.398-11.825,26.398-26.36  C512,101.686,500.158,89.861,485.602,89.861z M202.292,305.758h162.689v27.33H202.292V305.758z M364.981,290.1H202.292v-27.332  h162.689V290.1z M210.674,108.639h145.922v23.016H210.674V108.639z M218.022,147.314h131.232v56.802H218.022V147.314z   M210.131,219.774c0.017,0,0.033,0.002,0.05,0.002h146.914c0.017,0,0.033-0.002,0.05-0.002h7.836v27.335H202.292v-27.335H210.131z   M71.795,393.431c0,7.195-5.862,13.049-13.067,13.049s-13.067-5.854-13.067-13.049s5.862-13.049,13.067-13.049  S71.795,386.236,71.795,393.431z M378.326,406.48c-7.206,0-13.068-5.854-13.068-13.049s5.862-13.049,13.068-13.049  c7.206,0,13.068,5.853,13.068,13.049S385.532,406.48,378.326,406.48z M53.311,333.088l47.96-49.772l47.96,49.772H53.311z   M159.814,222.561v98.928l-47.663-49.464L159.814,222.561z M42.727,321.489v-98.928l47.663,49.464L42.727,321.489z M406.879,168.483  h26.247v26.209h-26.247V168.483z M485.602,126.922c-5.909,0-10.716-4.8-10.716-10.701c0-5.901,4.808-10.701,10.716-10.701  c5.909,0,10.716,4.8,10.716,10.701C496.318,122.121,491.512,126.922,485.602,126.922z"/>
<ellipse cx="58.723" cy="393.435" rx="7.841" ry="7.829"/>
<ellipse cx="378.326" cy="393.435" rx="7.841" ry="7.829"/>
<g>
</g>
<g>
</g>
<g>
</g>
<g>
</g>
<g>
</g>
<g>
</g>
<g>
</g>
<g>
</g>
<g>
</g>
<g>
</g>
<g>
</g>
<g>
</g>
<g>
</g>
<g>
</g>
<g>
</g>
</svg>
