<svg width="200" height="38" viewBox="0 0 200 38" fill="none" xmlns="http://www.w3.org/2000/svg">
<path d="M0 0H37.5V37.5H0V0ZM40.6 0H78.1V37.5H40.6V0ZM81.3 0H118.8V37.5H81.3V0ZM121.9 0H159.4V37.5H121.9V0ZM162.5 0H200V37.5H162.5V0Z" fill="white"/>
<path d="M18.8 25.2998L24.5 23.8998L26.9 31.1998L18.8 25.2998ZM31.9 15.7998H21.9L18.8 6.2998L15.7 15.7998H5.69995L13.8 21.6998L10.7 31.1998L18.8 25.2998L23.7999 21.6998L31.9 15.7998ZM59.4 25.2998L65.0999 23.8998L67.5 31.1998L59.4 25.2998ZM72.5 15.7998H62.5L59.4 6.2998L56.2999 15.7998H46.2999L54.4 21.6998L51.2999 31.1998L59.4 25.2998L64.4 21.6998L72.5 15.7998ZM100 25.2998L105.7 23.8998L108.1 31.1998L100 25.2998ZM113.1 15.7998H103.1L100 6.2998L96.9 15.7998H86.9L95 21.6998L91.9 31.1998L100 25.2998L105 21.6998L113.1 15.7998ZM140.6 25.2998L146.3 23.8998L148.7 31.1998L140.6 25.2998ZM153.8 15.7998H143.8L140.7 6.2998L137.6 15.7998H127.6L135.7 21.6998L132.6 31.1998L140.7 25.2998L145.7 21.6998L153.8 15.7998ZM181.3 25.2998L187 23.8998L189.4 31.1998L181.3 25.2998ZM194.4 15.7998H184.4L181.3 6.2998L178.2 15.7998H168.2L176.3 21.6998L173.2 31.1998L181.3 25.2998L186.3 21.6998L194.4 15.7998Z" fill="#202124"/>
</svg>
