<svg width="39" height="36" viewBox="0 0 39 36" fill="none" xmlns="http://www.w3.org/2000/svg">
<path d="M28.8078 32.6886C34.3 29.739 38 24.265 38 17.9938C38 15.0309 37.1762 12.2541 35.7308 9.83594C35.8176 10.3807 35.8609 10.9653 35.8609 11.5897C35.8609 13.317 35.5141 15.2568 34.459 17.6749L28.8078 32.6886Z" fill="#3475B2" stroke="#3475B2" stroke-width="1.5625"/>
<path d="M19.8324 19.4805L14.2824 34.3081C15.9445 34.7599 17.6933 34.999 19.5144 34.999C21.668 34.999 23.7348 34.6536 25.657 34.0291C25.6137 33.9494 25.5558 33.883 25.5269 33.8032L19.8324 19.4805Z" fill="#3475B2" stroke="#3475B2" stroke-width="1.5625"/>
<path d="M11.4352 33.2985L2.6043 11.0703C1.57813 13.1829 1 15.5213 1 17.9925C1 24.7155 5.24922 30.5482 11.4352 33.2985Z" fill="#3475B2" stroke="#3475B2" stroke-width="1.5625"/>
<path d="M10.1633 8.45369C11.1605 8.40055 11.2762 9.74248 10.2789 9.86205C10.2789 9.86205 9.28163 9.96835 8.16874 10.0215L14.9039 28.4365L18.9508 17.2759L16.0601 10.0215C15.0629 9.96835 14.1234 9.86205 14.1234 9.86205C13.1262 9.80891 13.2418 8.40055 14.239 8.45369C14.239 8.45369 17.2887 8.66627 19.1098 8.66627C21.0465 8.66627 24.0383 8.45369 24.0383 8.45369C25.0355 8.40055 25.1512 9.74248 24.1539 9.86205C24.1539 9.86205 23.1566 9.96835 22.0437 10.0215L28.7355 28.3036L30.5855 22.6436C31.525 20.4381 31.9875 18.6045 31.9875 17.143C31.9875 15.0438 31.1637 13.5823 30.4555 12.4529C29.516 11.0578 28.6344 9.86205 28.6344 8.46698C28.6344 6.89918 29.9207 5.45096 31.7418 5.45096C31.8141 5.45096 31.9008 5.46424 31.973 5.46424C28.6777 2.68738 24.2984 1 19.4855 1C13.025 1 7.33046 4.05588 4.02069 8.66627C4.45428 8.67956 4.85897 8.69285 5.20585 8.69285C7.17147 8.66628 10.1633 8.45369 10.1633 8.45369Z" fill="#3475B2" stroke="#3475B2" stroke-width="1.5625"/>
</svg>
